# xmcd CD database file
#
# Track frame offsets:
#	150
#	25618
#	45533
#	77293
#	108063
#	123443
#	151933
#	178525
#	204230
#	227525
#
# Disc length: 3519 seconds
#
# Revision: 2
# Processed by: cddbd v1.5PL3 Copyright (c) Steve Scherf et al.
# Submitted via: CDex 1.50Beta7
#
DISCID=610dbd0a
DTITLE=Elements - Liberal Arts
DYEAR=1989
DGENRE=Jazz
TTITLE0=Amber Linn
TTITLE1=Liberal Arts
TTITLE2=Underwater
TTITLE3=Amherican Hope
TTITLE4=Quetico
TTITLE5=Coral Canyon
TTITLE6=Oslo
TTITLE7=FB 206
TTITLE8=Michele's Dance
TTITLE9=Liberal Arts - Extended
EXTD=YEAR: 1989
EXTT0=
EXTT1=
EXTT2=
EXTT3=
EXTT4=
EXTT5=
EXTT6=
EXTT7=
EXTT8=
EXTT9=
PLAYORDER=
